<?xml version="1.0" encoding="UTF-8"?>
<svg width="68px" height="20px" viewBox="0 0 68 20" version="1.1" xmlns="http://www.w3.org/2000/svg" xmlns:xlink="http://www.w3.org/1999/xlink">
    <!-- Generator: Sketch 63.1 (92452) - https://sketch.com -->
    <title>vfinemusic标题</title>
    <desc>Created with Sketch.</desc>
    <g id="首页" stroke="none" stroke-width="1" fill="none" fill-rule="evenodd">
        <g transform="translate(-211.000000, -25.000000)" fill="#FFFFFF" fill-rule="nonzero" id="导航栏">
            <g>
                <g id="导航栏/登录后">
                    <g id="导航栏">
                        <g id="vfinemusic标题" transform="translate(205.000000, 14.000000)">
                            <g id="Vfine-logo" transform="translate(6.000000, 11.000000)">
                                <path d="M66.9295276,13.6529412 L56.0603764,13.6529412 C56.3214259,15.3647059 57.7571981,16.3705882 59.4540197,16.3705882 C60.6287424,16.3705882 61.388159,15.9058824 62.0941792,15.0235294 L66.5320204,15.0235294 C65.2801695,17.9 62.7171382,19.9941176 59.4540197,19.9941176 C55.2238315,19.9941176 51.7767917,16.5764706 51.7767917,12.3823529 C51.7767917,8.21176471 55.1229715,4.66470588 59.3768914,4.66470588 C63.8147326,4.66470588 67.0303876,8.18823529 67.0303876,12.5117647 C67.0303876,12.9 67.0066559,13.2647059 66.9295276,13.6529412 Z M59.4065562,8.28823529 C57.8402593,8.28823529 56.4519506,9.19411765 56.1137729,10.7470588 L62.6934065,10.7470588 C62.3552287,9.2 60.972853,8.28823529 59.4065562,8.28823529 Z" id="形状"></path>
                                <path d="M45.1437617,19.5294118 L45.1437617,11.6823529 C45.1437617,10.0764706 44.8293157,8.70588235 42.8714446,8.70588235 C40.860177,8.70588235 40.3914745,10 40.3914745,11.7117647 L40.3914745,19.5352941 L36.0544933,19.5352941 L36.0544933,5.15882353 L40.1007603,5.15882353 L40.1007603,6.68823529 L40.1541568,6.68823529 C41.06783,5.21176471 42.3493456,4.67058824 44.0995638,4.67058824 C45.3276829,4.67058824 46.870248,5.13529412 47.807653,5.91176471 C49.1900287,7.05294118 49.4807429,8.86470588 49.4807429,10.5470588 L49.4807429,19.5294118 L45.1437617,19.5294118 Z" id="路径"></path>
                                <path d="M28.5789854,19.5294118 L28.5789854,8.41764706 L24.8412315,8.41764706 L24.8412315,19.5294118 L20.5042503,19.5294118 L20.5042503,8.41764706 L18.8845569,8.41764706 L18.8845569,5.15294118 L20.5042503,5.15294118 L20.5042503,4.4 C20.5042503,0.905882353 23.0138851,0 26.0396859,0 L26.6923096,0 L26.6923096,3.23529412 C25.1260127,3.23529412 24.8352985,3.54705882 24.8352985,5.15294118 L32.9041007,5.15294118 L32.9041007,19.5294118 L28.5789854,19.5294118 Z M28.5789854,3.62941176 L28.5789854,0.364705882 L32.9159666,0.364705882 L32.9159666,3.62941176 L28.5789854,3.62941176 Z" id="形状"></path>
                                <path d="M11.7590926,19.5235294 L17.9708837,2.45882353 L8.71549296,2.45882353 C8.45444348,2.81176471 8.21712576,3.19411765 7.99167394,3.6 C7.70095974,4.12941176 7.43991026,4.69411765 7.22039137,5.26470588 L7.11953135,5.52352941 L11.0293406,5.52352941 L12.1150692,5.52352941 L11.7590926,6.54117647 L9.72409323,12.3294118 L8.99434127,14.4 L8.26458931,12.3294118 L6.22958993,6.54117647 L5.93887573,5.71176471 L5.77275333,5.24705882 L4.78195189,2.45882353 L0.0118658856,2.45882353 L6.17619344,19.5235294 L11.7590926,19.5235294 Z" id="路径"></path>
                            </g>
                        </g>
                    </g>
                </g>
            </g>
        </g>
    </g>
</svg>